<svg width="180" height="51" viewBox="0 0 180 51" fill="none" xmlns="http://www.w3.org/2000/svg">
<path d="M32.3492 5.89549C29.3424 3.19167 25.0368 1.84058 19.434 1.84058H0V39.7152C0 44.9662 4.25184 49.5498 9.49616 49.5498V32.0998H19.5024C25.0612 32.0998 29.344 30.7487 32.3508 28.0449C35.3576 25.3411 36.8601 21.6615 36.8601 17.0045C36.8585 12.3018 35.3559 8.5993 32.3492 5.89549ZM19.2628 23.4107H9.49616V10.5982H19.2645C24.5055 10.5982 27.1261 12.7342 27.1261 17.0045C27.1244 21.2764 24.5039 23.4107 19.2628 23.4107Z" fill="#454ADE"/>
<path d="M69.2794 20.5993C65.8881 17.2933 61.6264 15.6404 56.4995 15.6404C51.3937 15.6404 47.1516 17.2933 43.7716 20.5993C40.3901 23.9052 38.7001 28.045 38.7001 33.0202C38.7001 37.9954 40.3901 42.1352 43.7716 45.4411C47.1516 48.747 51.3953 50.4 56.4995 50.4C61.6264 50.4 65.8864 48.747 69.2794 45.4411C72.6708 42.1352 74.3673 37.9954 74.3673 33.0202C74.3673 28.045 72.6708 23.9052 69.2794 20.5993ZM62.7786 39.5635C61.1115 41.2671 59.0173 42.1189 56.4995 42.1189C53.9816 42.1189 51.894 41.2671 50.2366 39.5635C48.5808 37.86 47.7513 35.6783 47.7513 33.0202C47.7513 30.3621 48.5792 28.182 50.2366 26.4769C51.8923 24.7733 53.98 23.9215 56.4995 23.9215C59.0189 23.9215 61.1115 24.7733 62.7786 26.4769C64.4458 28.1804 65.2802 30.3621 65.2802 33.0202C65.2802 35.6783 64.4458 37.86 62.7786 39.5635Z" fill="#454ADE"/>
<path d="M79.4682 39.7479V39.8377C79.4682 44.7493 83.4446 49.5483 88.3516 49.5483V16.5281H79.4682V39.7479Z" fill="#454ADE"/>
<path d="M83.8586 0C82.2696 0 80.9317 0.551533 79.843 1.65297C78.7544 2.7544 78.2101 4.11202 78.2101 5.72583C78.2101 7.31679 78.7544 8.65646 79.843 9.74647C80.9317 10.8365 82.2713 11.3815 83.8586 11.3815C85.4687 11.3815 86.8197 10.8365 87.9083 9.74647C88.9969 8.65646 89.5413 7.31516 89.5413 5.72583C89.5413 4.11365 88.9904 2.75603 87.8904 1.65297C86.7904 0.551533 85.4475 0 83.8586 0Z" fill="#3EF992"/>
<path d="M112.243 15.642C107.909 15.642 104.676 17.2329 102.543 20.4132V16.528H93.899V49.5482H102.782V31.4537C102.782 29.068 103.441 27.2274 104.756 25.9334C106.071 24.6378 107.74 23.9917 109.759 23.9917C111.801 23.9917 113.383 24.6346 114.506 25.9171C115.629 27.2013 116.191 29.024 116.191 31.3868V49.5498H125.075V28.523C125.075 24.7064 123.879 21.606 121.485 19.2204C119.089 16.8348 116.009 15.642 112.243 15.642Z" fill="#454ADE"/>
<path d="M144.16 42.1188C142.662 42.1188 141.466 41.6701 140.57 40.7726C139.674 39.8752 139.225 38.4506 139.225 36.4958V24.4322H151.171V16.5264H139.225V6.71301H130.342V16.528V24.4339V37.2121C130.342 41.5053 131.385 44.777 133.473 47.0255C135.56 49.2741 138.634 50.3983 142.695 50.3983C146.598 50.3983 150.239 49.2398 153.62 46.9227L150.353 39.9714C147.995 41.4041 145.93 42.1188 144.16 42.1188Z" fill="#454ADE"/>
<path d="M176.732 39.9731C174.373 41.4041 172.308 42.1205 170.538 42.1205C169.04 42.1205 167.844 41.6717 166.948 40.7743C166.052 39.8768 165.603 38.4523 165.603 36.4974V24.4339H177.549V16.528H165.603V6.71301H156.72V16.528V24.4339V37.2121C156.72 41.5053 157.763 44.777 159.851 47.0255C161.938 49.2741 165.012 50.3983 169.073 50.3983C172.976 50.3983 176.617 49.2398 179.998 46.9227L176.732 39.9731Z" fill="#454ADE"/>
</svg>
