<svg width="205" height="57" viewBox="0 0 205 57" fill="none" xmlns="http://www.w3.org/2000/svg">
<path d="M36.8421 6.66745C33.4178 3.60957 28.5141 2.08154 22.1331 2.08154H0V44.916C0 50.8546 4.84237 56.0384 10.8151 56.0384V36.3033H22.2111C28.542 36.3033 33.4196 34.7753 36.844 31.7174C40.2684 28.6595 41.9796 24.4981 41.9796 19.2312C41.9778 13.9126 40.2665 9.72534 36.8421 6.66745ZM21.9382 26.4764H10.8151V11.986H21.9401C27.9091 11.986 30.8936 14.4017 30.8936 19.2312C30.8917 24.0625 27.9072 26.4764 21.9382 26.4764Z" fill="#454ADE"/>
<path d="M78.9016 23.2968C75.0392 19.5579 70.1857 17.6885 64.3466 17.6885C58.5317 17.6885 53.7004 19.5579 49.851 23.2968C45.9998 27.0356 44.0751 31.7175 44.0751 37.3442C44.0751 42.971 45.9998 47.6528 49.851 51.3917C53.7004 55.1305 58.5335 57 64.3466 57C70.1857 57 75.0373 55.1305 78.9016 51.3917C82.7639 47.6528 84.6961 42.971 84.6961 37.3442C84.6961 31.7175 82.7639 27.0356 78.9016 23.2968ZM71.4979 44.7444C69.5991 46.6711 67.2142 47.6344 64.3466 47.6344C61.479 47.6344 59.1015 46.6711 57.2139 44.7444C55.3282 42.8178 54.3834 40.3504 54.3834 37.3442C54.3834 34.338 55.3263 31.8725 57.2139 29.944C59.0996 28.0174 61.4772 27.0541 64.3466 27.0541C67.216 27.0541 69.5991 28.0174 71.4979 29.944C73.3966 31.8707 74.3469 34.338 74.3469 37.3442C74.3469 40.3504 73.3966 42.8178 71.4979 44.7444Z" fill="#454ADE"/>
<path d="M90.5054 44.9529V45.0544C90.5054 50.6092 95.0341 56.0366 100.623 56.0366V18.6924H90.5054V44.9529Z" fill="#454ADE"/>
<path d="M95.5056 0C93.6959 0 92.1721 0.623758 90.9323 1.86943C89.6925 3.1151 89.0726 4.6505 89.0726 6.47564C89.0726 8.27494 89.6925 9.79004 90.9323 11.0228C92.1721 12.2555 93.6978 12.8719 95.5056 12.8719C97.3393 12.8719 98.878 12.2555 100.118 11.0228C101.358 9.79004 101.978 8.27309 101.978 6.47564C101.978 4.65235 101.35 3.11694 100.097 1.86943C98.8445 0.623758 97.3152 0 95.5056 0Z" fill="#3EF992"/>
<path d="M127.832 17.6904C122.897 17.6904 119.214 19.4897 116.785 23.0865V18.6925H106.941V56.0368H117.058V35.5727C117.058 32.8747 117.808 30.793 119.305 29.3296C120.803 27.8643 122.704 27.1335 125.003 27.1335C127.329 27.1335 129.131 27.8606 130.41 29.3111C131.689 30.7635 132.329 32.8249 132.329 35.497V56.0386H142.446V32.2583C142.446 27.9418 141.084 24.4355 138.358 21.7375C135.629 19.0394 132.121 17.6904 127.832 17.6904Z" fill="#454ADE"/>
<path d="M164.182 47.6343C162.477 47.6343 161.114 47.1268 160.093 46.1118C159.073 45.0968 158.562 43.4858 158.562 41.2749V27.6316H172.167V18.6905H158.562V7.59204H148.445V18.6923V27.6335V42.0851C148.445 46.9404 149.633 50.6405 152.01 53.1835C154.388 55.7266 157.888 56.9981 162.514 56.9981C166.959 56.9981 171.105 55.6878 174.956 53.0673L171.235 45.2057C168.549 46.826 166.198 47.6343 164.182 47.6343Z" fill="#454ADE"/>
<path d="M201.279 45.2076C198.591 46.826 196.24 47.6362 194.224 47.6362C192.518 47.6362 191.156 47.1287 190.135 46.1137C189.114 45.0987 188.604 43.4876 188.604 41.2768V27.6335H202.209V18.6923H188.604V7.59204H178.487V18.6923V27.6335V42.0851C178.487 46.9404 179.674 50.6405 182.052 53.1835C184.43 55.7266 187.93 56.9981 192.555 56.9981C197 56.9981 201.147 55.6878 204.998 53.0673L201.279 45.2076Z" fill="#454ADE"/>
</svg>
