<svg width="44" height="82" viewBox="0 0 44 82" fill="none" xmlns="http://www.w3.org/2000/svg">
<path d="M42.9627 1.28747C43.2537 1.57776 43.4846 1.9226 43.6422 2.30226C43.7997 2.68192 43.8808 3.08893 43.8808 3.49997C43.8808 3.91102 43.7997 4.31802 43.6422 4.69768C43.4846 5.07734 43.2537 5.42219 42.9627 5.71247L7.66896 41L42.9627 76.2875C43.5495 76.8743 43.8792 77.6701 43.8792 78.5C43.8792 79.3298 43.5495 80.1257 42.9627 80.7125C42.3759 81.2993 41.5801 81.6289 40.7502 81.6289C39.9204 81.6289 39.1245 81.2993 38.5377 80.7125L1.03771 43.2125C0.746693 42.9222 0.515799 42.5773 0.358259 42.1977C0.200719 41.818 0.119629 41.411 0.119629 41C0.119629 40.5889 0.200719 40.1819 0.358259 39.8023C0.515799 39.4226 0.746693 39.0778 1.03771 38.7875L38.5377 1.28747C38.828 0.996451 39.1728 0.765558 39.5525 0.608018C39.9322 0.450478 40.3392 0.369385 40.7502 0.369385C41.1613 0.369385 41.5683 0.450478 41.9479 0.608018C42.3276 0.765558 42.6724 0.996451 42.9627 1.28747V1.28747Z" fill="white"/>
</svg>
