<svg width="44" height="82" viewBox="0 0 44 82" fill="none" xmlns="http://www.w3.org/2000/svg">
<path d="M1.03771 1.28747C1.328 0.996451 1.67285 0.765558 2.0525 0.608018C2.43216 0.450478 2.83917 0.369385 3.25021 0.369385C3.66126 0.369385 4.06827 0.450478 4.44792 0.608018C4.82758 0.765558 5.17243 0.996451 5.46271 1.28747L42.9627 38.7875C43.2537 39.0778 43.4846 39.4226 43.6422 39.8023C43.7997 40.1819 43.8808 40.5889 43.8808 41C43.8808 41.411 43.7997 41.818 43.6422 42.1977C43.4846 42.5773 43.2537 42.9222 42.9627 43.2125L5.46271 80.7125C4.87592 81.2993 4.08006 81.6289 3.25021 81.6289C2.42037 81.6289 1.6245 81.2993 1.03771 80.7125C0.450922 80.1257 0.121265 79.3298 0.121265 78.5C0.121265 77.6701 0.450922 76.8743 1.03771 76.2875L36.3315 41L1.03771 5.71247C0.746693 5.42219 0.515799 5.07734 0.358259 4.69768C0.200719 4.31802 0.119629 3.91102 0.119629 3.49997C0.119629 3.08893 0.200719 2.68192 0.358259 2.30226C0.515799 1.9226 0.746693 1.57776 1.03771 1.28747V1.28747Z" fill="white"/>
</svg>
