<svg width="34" height="34" viewBox="0 0 34 34" fill="none" xmlns="http://www.w3.org/2000/svg">
<path d="M29.6749 11.765C29.6606 10.692 29.4598 9.62976 29.0813 8.62566C28.7532 7.7787 28.2519 7.00952 27.6097 6.36725C26.9674 5.72498 26.1982 5.22374 25.3513 4.89557C24.3601 4.5235 23.3129 4.32231 22.2544 4.30057C20.8916 4.23966 20.4595 4.22266 17 4.22266C13.5405 4.22266 13.0971 4.22266 11.7442 4.30057C10.6861 4.32247 9.6395 4.52365 8.64876 4.89557C7.80167 5.22352 7.03237 5.72467 6.39007 6.36697C5.74777 7.00927 5.24662 7.77857 4.91867 8.62566C4.54585 9.61609 4.3451 10.663 4.32509 11.7211C4.26417 13.0853 4.24576 13.5174 4.24576 16.9769C4.24576 20.4364 4.24576 20.8784 4.32509 22.2327C4.34634 23.2924 4.54609 24.3379 4.91867 25.331C5.24717 26.1778 5.74869 26.9468 6.39121 27.5888C7.03372 28.2309 7.8031 28.7318 8.65017 29.0597C9.63821 29.4467 10.685 29.6623 11.7456 29.6972C13.1098 29.7581 13.5419 29.7765 17.0014 29.7765C20.4609 29.7765 20.9043 29.7765 22.2573 29.6972C23.3157 29.6763 24.3629 29.4756 25.3541 29.1036C26.2008 28.775 26.9698 28.2737 27.612 27.6314C28.2543 26.9892 28.7556 26.2202 29.0842 25.3735C29.4568 24.3818 29.6565 23.3363 29.6778 22.2752C29.7387 20.9124 29.7571 20.4803 29.7571 17.0194C29.7543 13.5599 29.7543 13.1207 29.6749 11.765ZM16.9915 23.5191C13.3733 23.5191 10.4423 20.588 10.4423 16.9698C10.4423 13.3517 13.3733 10.4206 16.9915 10.4206C18.7285 10.4206 20.3943 11.1106 21.6225 12.3388C22.8507 13.567 23.5408 15.2329 23.5408 16.9698C23.5408 18.7068 22.8507 20.3726 21.6225 21.6008C20.3943 22.8291 18.7285 23.5191 16.9915 23.5191ZM23.8014 11.7055C23.6008 11.7057 23.4022 11.6663 23.2168 11.5896C23.0314 11.5129 22.863 11.4005 22.7211 11.2586C22.5793 11.1168 22.4668 10.9483 22.3901 10.763C22.3134 10.5776 22.2741 10.3789 22.2743 10.1783C22.2743 9.97787 22.3137 9.77937 22.3905 9.59417C22.4672 9.40897 22.5796 9.2407 22.7213 9.09895C22.8631 8.95721 23.0314 8.84477 23.2166 8.76806C23.4018 8.69135 23.6003 8.65186 23.8007 8.65186C24.0012 8.65186 24.1997 8.69135 24.3849 8.76806C24.5701 8.84477 24.7383 8.95721 24.8801 9.09895C25.0218 9.2407 25.1343 9.40897 25.211 9.59417C25.2877 9.77937 25.3272 9.97787 25.3272 10.1783C25.3272 11.0227 24.6443 11.7055 23.8014 11.7055Z" fill="#3EF992"/>
<path d="M16.9915 21.2243C19.3411 21.2243 21.2457 19.3196 21.2457 16.9701C21.2457 14.6205 19.3411 12.7158 16.9915 12.7158C14.6419 12.7158 12.7372 14.6205 12.7372 16.9701C12.7372 19.3196 14.6419 21.2243 16.9915 21.2243Z" fill="#3EF992"/>
</svg>
