<svg width="99" height="28" viewBox="0 0 99 28" fill="none" xmlns="http://www.w3.org/2000/svg">
<path d="M17.7921 3.27519C16.1383 1.77307 13.7702 1.02246 10.6887 1.02246H0V22.0639C0 24.9811 2.33851 27.5276 5.22289 27.5276V17.8332H10.7263C13.7837 17.8332 16.1392 17.0826 17.7929 15.5804C19.4467 14.0783 20.2731 12.0341 20.2731 9.44685C20.2722 6.83423 19.4458 4.77731 17.7921 3.27519ZM10.5946 13.0059H5.22289V5.88781H10.5955C13.478 5.88781 14.9193 7.07446 14.9193 9.44685C14.9184 11.8201 13.4771 13.0059 10.5946 13.0059Z" fill="white"/>
<path d="M38.1038 11.4444C36.2385 9.60777 33.8947 8.68945 31.0748 8.68945C28.2666 8.68945 25.9335 9.60777 24.0745 11.4444C22.2146 13.281 21.2852 15.5809 21.2852 18.3449C21.2852 21.1089 22.2146 23.4088 24.0745 25.2454C25.9335 27.082 28.2675 28.0004 31.0748 28.0004C33.8947 28.0004 36.2376 27.082 38.1038 25.2454C39.969 23.4088 40.9021 21.1089 40.9021 18.3449C40.9021 15.5809 39.969 13.281 38.1038 11.4444ZM34.5284 21.9801C33.6114 22.9265 32.4596 23.3997 31.0748 23.3997C29.69 23.3997 28.5418 22.9265 27.6302 21.9801C26.7196 21.0337 26.2633 19.8216 26.2633 18.3449C26.2633 16.8682 26.7187 15.657 27.6302 14.7097C28.5409 13.7633 29.6891 13.2901 31.0748 13.2901C32.4605 13.2901 33.6114 13.7633 34.5284 14.7097C35.4453 15.6561 35.9042 16.8682 35.9042 18.3449C35.9042 19.8216 35.4453 21.0337 34.5284 21.9801Z" fill="white"/>
<path d="M43.7075 22.0825V22.1324C43.7075 24.8611 45.8946 27.5272 48.5934 27.5272V9.18262H43.7075V22.0825Z" fill="white"/>
<path d="M46.1223 0C45.2484 0 44.5125 0.306407 43.9137 0.918315C43.315 1.53022 43.0156 2.28446 43.0156 3.18101C43.0156 4.06488 43.315 4.80914 43.9137 5.41471C44.5125 6.02027 45.2493 6.32305 46.1223 6.32305C47.0079 6.32305 47.7509 6.02027 48.3497 5.41471C48.9484 4.80914 49.2478 4.06397 49.2478 3.18101C49.2478 2.28536 48.9448 1.53113 48.3398 0.918315C47.7348 0.306407 46.9962 0 46.1223 0Z" fill="#3EF992"/>
<path d="M61.7336 8.69043C59.3502 8.69043 57.5719 9.5743 56.3986 11.3411V9.18268H51.6445V27.5272H56.5304V17.4747C56.5304 16.1494 56.8925 15.1268 57.6158 14.4079C58.3392 13.6881 59.257 13.3291 60.3676 13.3291C61.4907 13.3291 62.361 13.6863 62.9786 14.3989C63.5961 15.1123 63.9054 16.1249 63.9054 17.4375V27.5281H68.7912V15.8466C68.7912 13.7262 68.1333 12.0038 66.8166 10.6785C65.499 9.3531 63.805 8.69043 61.7336 8.69043Z" fill="white"/>
<path d="M79.2879 23.3994C78.4642 23.3994 77.8063 23.1501 77.3133 22.6515C76.8203 22.1529 76.5739 21.3615 76.5739 20.2755V13.5735H83.1439V9.18137H76.5739V3.72949H71.688V9.18227V13.5744V20.6734C71.688 23.0585 72.2616 24.8761 73.4098 26.1253C74.558 27.3745 76.2485 27.9991 78.4821 27.9991C80.6288 27.9991 82.6312 27.3555 84.4911 26.0682L82.694 22.2064C81.397 23.0023 80.2613 23.3994 79.2879 23.3994Z" fill="white"/>
<path d="M97.2029 22.2073C95.905 23.0023 94.7694 23.4003 93.796 23.4003C92.9723 23.4003 92.3144 23.151 91.8214 22.6524C91.3284 22.1538 91.0819 21.3624 91.0819 20.2764V13.5744H97.652V9.18227H91.0819V3.72949H86.196V9.18227V13.5744V20.6734C86.196 23.0585 86.7697 24.8761 87.9179 26.1253C89.0661 27.3745 90.7565 27.9991 92.9902 27.9991C95.1369 27.9991 97.1393 27.3555 98.9992 26.0682L97.2029 22.2073Z" fill="white"/>
</svg>
