<svg width="97" height="28" viewBox="0 0 97 28" fill="none" xmlns="http://www.w3.org/2000/svg">
<path d="M17.4328 3.17218C15.8124 1.71696 13.4922 0.989789 10.4728 0.989789H0V21.3742C0 24.2004 2.29129 26.6673 5.11742 26.6673V17.2774H10.5097C13.5053 17.2774 15.8133 16.5502 17.4337 15.095C19.054 13.6398 19.8637 11.6594 19.8637 9.15289C19.8628 6.62097 19.0522 4.6274 17.4328 3.17218ZM10.3807 12.599H5.11657V5.70316H10.3807C13.205 5.70316 14.6172 6.85275 14.6172 9.15107C14.6172 11.4503 13.205 12.599 10.3807 12.599Z" fill="white"/>
<path d="M37.3334 11.0867C35.5058 9.30744 33.2092 8.41779 30.4463 8.41779C27.6949 8.41779 25.4088 9.30744 23.5874 11.0867C21.7651 12.866 20.8544 15.0941 20.8544 17.7718C20.8544 20.4495 21.7651 22.6775 23.5874 24.4568C25.4088 26.2361 27.6957 27.1257 30.4463 27.1257C33.2092 27.1257 35.5049 26.2361 37.3334 24.4568C39.161 22.6775 40.0752 20.4495 40.0752 17.7718C40.0761 15.0941 39.1618 12.8651 37.3334 11.0867ZM33.831 21.2934C32.9326 22.2103 31.8049 22.6688 30.4472 22.6688C29.0895 22.6688 27.9645 22.2103 27.0722 21.2934C26.179 20.3766 25.7329 19.2024 25.7329 17.7718C25.7329 16.3411 26.179 15.1678 27.0722 14.2501C27.9653 13.3332 29.0903 12.8748 30.4472 12.8748C31.8041 12.8748 32.9317 13.3332 33.831 14.2501C34.7294 15.1678 35.1791 16.3411 35.1791 17.7718C35.1791 19.2024 34.7294 20.3766 33.831 21.2934Z" fill="white"/>
<path d="M42.8249 21.4402C42.8249 24.0836 44.9678 26.6665 47.6122 26.6665V8.89472H42.8249V21.4402Z" fill="white"/>
<path d="M45.1909 0C44.3346 0 43.6136 0.296841 43.0269 0.889643C42.4403 1.48244 42.1469 2.21312 42.1469 3.08169C42.1469 3.93796 42.4403 4.65898 43.0269 5.24564C43.6136 5.83229 44.3355 6.12562 45.1909 6.12562C46.0585 6.12562 46.7866 5.83229 47.3732 5.24564C47.9599 4.65898 48.2532 3.93708 48.2532 3.08169C48.2532 2.214 47.9564 1.48332 47.3636 0.889643C46.7708 0.295962 46.0462 0 45.1909 0Z" fill="#3EF992"/>
<path d="M60.4869 8.41779C58.1517 8.41779 56.4093 9.27406 55.2597 10.9857V8.89467H50.6016V26.6664H55.3888V16.9278C55.3888 15.6438 55.7436 14.6532 56.4523 13.9568C57.1611 13.2594 58.0604 12.9117 59.1485 12.9117C60.2489 12.9117 61.1017 13.2577 61.7068 13.948C62.3119 14.6391 62.6148 15.6201 62.6148 16.8918V26.6673H67.402V15.3514C67.402 13.2972 66.7574 11.6286 65.4673 10.3446C64.1763 9.05978 62.5156 8.41779 60.4869 8.41779Z" fill="white"/>
<path d="M77.6869 22.6688C76.8798 22.6688 76.2352 22.4273 75.7522 21.9442C75.2692 21.4612 75.0277 20.6945 75.0277 19.6424V13.1497H81.4651V8.89469H75.0277V3.61217H70.2405V20.0271C70.2405 22.3377 70.8025 24.0985 71.9275 25.3087C73.0525 26.5189 74.7089 27.124 76.8974 27.124C79.0008 27.124 80.9627 26.5005 82.785 25.2534L81.0242 21.5122C79.7525 22.2832 78.6407 22.6688 77.6869 22.6688Z" fill="white"/>
<path d="M95.24 21.513C93.9684 22.2832 92.8556 22.6688 91.9019 22.6688C91.0948 22.6688 90.4502 22.4273 89.9672 21.9442C89.4841 21.4612 89.2426 20.6945 89.2426 19.6424V13.1497H95.68V8.89469H89.2426V3.61217H84.4554V20.0271C84.4554 22.3377 85.0175 24.0985 86.1425 25.3087C87.2675 26.5189 88.9238 27.124 91.1124 27.124C93.2157 27.124 95.1777 26.5005 97 25.2534L95.24 21.513Z" fill="white"/>
</svg>
