<svg width="34" height="34" viewBox="0 0 34 34" fill="none" xmlns="http://www.w3.org/2000/svg">
<path d="M17.144 3C9.33239 3 3 9.33239 3 17.144C3 24.9556 9.33239 31.288 17.144 31.288C24.9556 31.288 31.288 24.9556 31.288 17.144C31.288 9.33239 24.9556 3 17.144 3ZM13.6817 23.0064H10.8175V13.7892H13.6817V23.0064ZM12.2319 12.6577C11.3273 12.6577 10.7424 12.0168 10.7424 11.2241C10.7424 10.4153 11.345 9.79354 12.2687 9.79354C13.1925 9.79354 13.7583 10.4153 13.776 11.2241C13.776 12.0168 13.1925 12.6577 12.2319 12.6577ZM24.1423 23.0064H21.2782V17.8983C21.2782 16.7094 20.8627 15.902 19.8269 15.902C19.0358 15.902 18.5658 16.4486 18.358 16.9746C18.2814 17.1617 18.2623 17.4269 18.2623 17.6906V23.0049H15.3966V16.7285C15.3966 15.5778 15.3598 14.6158 15.3215 13.7877H17.8099L17.9411 15.0681H17.9985C18.3757 14.467 19.2995 13.58 20.845 13.58C22.7294 13.58 24.1423 14.8427 24.1423 17.5565V23.0064V23.0064Z" fill="#3EF992"/>
</svg>
